<svg height="40" viewBox="0 0 104 40" width="104" xmlns="http://www.w3.org/2000/svg"><g fill="none" fill-rule="evenodd"><g fill-rule="nonzero" stroke="#000" stroke-width="2" transform="translate(29)"><path d="m1 1h73v25h-73z"/><g stroke-linecap="square"><path d="m25.7142857 2.90769231v21.32307689"/><path d="m50.3571429 2.90769231v21.32307689"/><path d="m34.2857143 7.64307692v11.85230768"/><path d="m52.5 12.96h19.6153846"/><path d="m2.67857143 2.7 21.42857147 21.6"/></g><path d="m39.6428571 1.08-11.7857142 12.42 11.7857142 12.42"/></g><g fill="#000" transform="translate(0 15)"><path d="m58.6066135.33338933.0658723.06840909v-.13639328z"/><path d="m58.6724858.26540514v.13639328l-.0658723-.06840909z"/><path d="m0 0h27.6v11.9565217h-27.6zm3.3432 9.7826087h1.6416v-4.83695653l3.6612 4.83695653h1.4148v-7.60869566h-1.6416v4.68478261l-3.5424-4.68478261h-1.5336zm7.992 0h1.6632v-2.32608696l.8748-.91304348 2.3436 3.23913044h1.998l-3.2184-4.38043479 3.078-3.22826087h-2.0088l-3.0672 3.32608696v-3.32608696h-1.6632zm7.344 0h1.6632v-3.05434783h3.0672v3.05434783h1.6632v-7.60869566h-1.6632v3.01086957h-3.0672v-3.01086957h-1.6632z"/><path d="m0 13.0434783h45.96v11.9565217h-45.96zm3.0732 9.7826087h2.9484c1.17360587 0 2.13659624-.3623153 2.889-1.0869566s1.1286-1.6304293 1.1286-2.7173913c0-1.0942083-.37439626-2.001808-1.1232-2.7228261s-1.7135941-1.0815217-2.8944-1.0815217h-2.9484zm1.6632-1.5108696v-4.5869565h1.2852c.67680338 0 1.22579789.2137659 1.647.6413043s.6318.9782575.6318 1.6521739c0 .6811629-.20879791 1.2336936-.6264 1.6576087-.41760209.4239152-.96839658.6358696-1.6524.6358696zm6.318 1.5108696h1.6632v-7.6086957h-1.6632zm6.6528.1304347c1.209606 0 2.2859953-.4021699 3.2292-1.2065217v-3.3043478h-3.2832v1.4456521h1.674v1.0869566c-.4248021.3043493-.9467969.4565217-1.566.4565217-.6696033 0-1.2185979-.2282586-1.647-.6847826s-.6426-1.0326052-.6426-1.7282609c0-.6594236.2105979-1.2228237.6318-1.6902174.4212021-.4673936.934197-.7010869 1.539-.7010869.4104021 0 .7631985.0615936 1.0584.1847826s.6011984.3188392.918.5869565l1.0476-1.2717391c-.4176021-.3550743-.8531977-.6177528-1.3068-.7880435s-1.0079967-.2554348-1.6632-.2554348c-1.1304057 0-2.0735962.3822426-2.8296 1.1467392-.7560038.7644965-1.134 1.6938351-1.134 2.7880434 0 1.1449333.3689963 2.0869529 1.107 2.826087s1.6937941 1.1086956 2.8674 1.1086956zm4.3632-.1304347h1.6632v-7.6086957h-1.6632zm4.7736 0h1.6632v-6.0652174h2.3004v-1.5434783h-6.264v1.5434783h2.3004zm3.078 0h1.6956l.6912-1.7065218h3.1968l.6912 1.7065218h1.7388l-3.24-7.6630435h-1.5336zm2.9808-3.1847827 1.0044-2.4673913 1.0044 2.4673913zm5.6592 3.1847827h5.4324v-1.5217392h-3.7692v-6.0869565h-1.6632z"/></g></g></svg>